<svg width="28" height="28" viewBox="0 0 28 28" fill="none" xmlns="http://www.w3.org/2000/svg">
<path d="M13.94 15.0752C14.5449 15.0752 15.0352 14.5849 15.0352 13.98C15.0352 13.3751 14.5449 12.8848 13.94 12.8848C13.3351 12.8848 12.8447 13.3751 12.8447 13.98C12.8447 14.5849 13.3351 15.0752 13.94 15.0752Z" stroke="#262CD9" stroke-width="2.50341" stroke-linecap="round" stroke-linejoin="round"/>
<path d="M13.94 7.40923C14.5449 7.40923 15.0352 6.91888 15.0352 6.31399C15.0352 5.70911 14.5449 5.21875 13.94 5.21875C13.3351 5.21875 12.8447 5.70911 12.8447 6.31399C12.8447 6.91888 13.3351 7.40923 13.94 7.40923Z" stroke="#262CD9" stroke-width="2.50341" stroke-linecap="round" stroke-linejoin="round"/>
<path d="M13.94 22.7432C14.5449 22.7432 15.0352 22.2529 15.0352 21.648C15.0352 21.0431 14.5449 20.5527 13.94 20.5527C13.3351 20.5527 12.8447 21.0431 12.8447 21.648C12.8447 22.2529 13.3351 22.7432 13.94 22.7432Z" stroke="#262CD9" stroke-width="2.50341" stroke-linecap="round" stroke-linejoin="round"/>
</svg>
