<svg width="33" height="33" viewBox="0 0 33 33" fill="none" xmlns="http://www.w3.org/2000/svg">
<g clip-path="url(#clip0_160_2085)">
<rect width="32.0444" height="32.0444" rx="4.57778" fill="#03B473"/>
<path d="M13.1873 12.7494C13.0773 12.4042 12.9294 12.0951 12.7435 11.822C12.5615 11.5451 12.3434 11.3099 12.0892 11.1165C11.8351 10.9192 11.5449 10.7694 11.2187 10.667C10.8963 10.5646 10.5416 10.5134 10.1547 10.5134C9.4985 10.5134 8.90677 10.6822 8.37952 11.0197C7.85227 11.3573 7.43503 11.8523 7.12778 12.5048C6.82433 13.1534 6.67261 13.9481 6.67261 14.8888C6.67261 15.8332 6.82623 16.6317 7.13347 17.2841C7.44072 17.9365 7.86176 18.4315 8.39659 18.7691C8.93142 19.1067 9.54022 19.2755 10.223 19.2755C10.8564 19.2755 11.4083 19.1466 11.8787 18.8886C12.3528 18.6307 12.7189 18.2665 12.9768 17.7962C13.2385 17.322 13.3694 16.7645 13.3694 16.1234L13.8246 16.2088H10.4904V14.7579H15.0706V16.0836C15.0706 17.0622 14.862 17.9119 14.4448 18.6326C14.0313 19.3495 13.4585 19.9033 12.7265 20.294C11.9982 20.6847 11.1637 20.88 10.223 20.88C9.16849 20.88 8.24297 20.6373 7.44641 20.1517C6.65364 19.6662 6.03536 18.9778 5.59156 18.0864C5.14776 17.1912 4.92587 16.1291 4.92587 14.9001C4.92587 13.9708 5.05483 13.1363 5.31277 12.3967C5.5707 11.657 5.93294 11.0292 6.3995 10.5134C6.86985 9.9937 7.42175 9.59732 8.05521 9.32421C8.69245 9.04732 9.38849 8.90887 10.1433 8.90887C10.773 8.90887 11.359 9.0018 11.9015 9.18766C12.4477 9.37352 12.9332 9.63715 13.358 9.97853C13.7866 10.3199 14.1413 10.7258 14.422 11.1961C14.7027 11.6627 14.8923 12.1804 14.991 12.7494H13.1873ZM25.1883 12.7494C25.0783 12.4042 24.9304 12.0951 24.7445 11.822C24.5625 11.5451 24.3444 11.3099 24.0902 11.1165C23.8361 10.9192 23.5459 10.7694 23.2197 10.667C22.8973 10.5646 22.5426 10.5134 22.1557 10.5134C21.4995 10.5134 20.9078 10.6822 20.3805 11.0197C19.8533 11.3573 19.436 11.8523 19.1288 12.5048C18.8254 13.1534 18.6736 13.9481 18.6736 14.8888C18.6736 15.8332 18.8272 16.6317 19.1345 17.2841C19.4417 17.9365 19.8628 18.4315 20.3976 18.7691C20.9324 19.1067 21.5412 19.2755 22.224 19.2755C22.8575 19.2755 23.4094 19.1466 23.8797 18.8886C24.3539 18.6307 24.7199 18.2665 24.9778 17.7962C25.2396 17.322 25.3704 16.7645 25.3704 16.1234L25.8256 16.2088H22.4914V14.7579H27.0716V16.0836C27.0716 17.0622 26.863 17.9119 26.4458 18.6326C26.0323 19.3495 25.4596 19.9033 24.7275 20.294C23.9992 20.6847 23.1647 20.88 22.224 20.88C21.1695 20.88 20.244 20.6373 19.4474 20.1517C18.6547 19.6662 18.0364 18.9778 17.5926 18.0864C17.1488 17.1912 16.9269 16.1291 16.9269 14.9001C16.9269 13.9708 17.0559 13.1363 17.3138 12.3967C17.5717 11.657 17.934 11.0292 18.4005 10.5134C18.8709 9.9937 19.4228 9.59732 20.0562 9.32421C20.6935 9.04732 21.3895 8.90887 22.1444 8.90887C22.774 8.90887 23.3601 9.0018 23.9025 9.18766C24.4487 9.37352 24.9342 9.63715 25.359 9.97853C25.7877 10.3199 26.1423 10.7258 26.423 11.1961C26.7037 11.6627 26.8934 12.1804 26.992 12.7494H25.1883Z" fill="white"/>
</g>
<defs>
<clipPath id="clip0_160_2085">
<rect width="32.0444" height="32.0444" rx="4.57778" fill="white"/>
</clipPath>
</defs>
</svg>
