<svg width="32" height="31" viewBox="0 0 32 31" fill="none" xmlns="http://www.w3.org/2000/svg">
<path d="M10.0004 7.74358V8.99528C10.4456 8.99528 10.8572 8.75882 11.0816 8.37427L10.0004 7.74358ZM12.1032 4.13867V2.88697C11.658 2.88697 11.2463 3.12343 11.022 3.50797L12.1032 4.13867ZM19.9139 4.13867L20.995 3.50797C20.7707 3.12343 20.359 2.88697 19.9139 2.88697V4.13867ZM22.0167 7.74358L20.9355 8.37427C21.1598 8.75882 21.5715 8.99528 22.0167 8.99528V7.74358ZM5.24389 23.0644V10.7477H2.74048V23.0644H5.24389ZM6.99628 8.99528H10.0004V6.49187H6.99628V8.99528ZM11.0816 8.37427L13.1844 4.76937L11.022 3.50797L8.91917 7.11288L11.0816 8.37427ZM12.1032 5.39038H19.9139V2.88697H12.1032V5.39038ZM18.8327 4.76937L20.9355 8.37427L23.0979 7.11288L20.995 3.50797L18.8327 4.76937ZM22.0167 8.99528H25.0208V6.49187H22.0167V8.99528ZM26.7732 10.7477V23.0644H29.2766V10.7477H26.7732ZM26.7732 23.0644C26.7732 24.0322 25.9886 24.8168 25.0208 24.8168V27.3202C27.3712 27.3202 29.2766 25.4148 29.2766 23.0644H26.7732ZM25.0208 8.99528C25.9886 8.99528 26.7732 9.77985 26.7732 10.7477H29.2766C29.2766 8.39726 27.3712 6.49187 25.0208 6.49187V8.99528ZM5.24389 10.7477C5.24389 9.77985 6.02846 8.99528 6.99628 8.99528V6.49187C4.64587 6.49187 2.74048 8.39725 2.74048 10.7477H5.24389ZM6.99628 24.8168C6.02846 24.8168 5.24389 24.0322 5.24389 23.0644H2.74048C2.74048 25.4148 4.64587 27.3202 6.99628 27.3202V24.8168ZM19.263 16.155C19.263 17.9524 17.8059 19.4095 16.0085 19.4095V21.9129C19.1885 21.9129 21.7664 19.335 21.7664 16.155H19.263ZM16.0085 19.4095C14.2112 19.4095 12.7541 17.9524 12.7541 16.155H10.2507C10.2507 19.335 12.8286 21.9129 16.0085 21.9129V19.4095ZM12.7541 16.155C12.7541 14.3577 14.2112 12.9006 16.0085 12.9006V10.3972C12.8286 10.3972 10.2507 12.9751 10.2507 16.155H12.7541ZM16.0085 12.9006C17.8059 12.9006 19.263 14.3577 19.263 16.155H21.7664C21.7664 12.9751 19.1885 10.3972 16.0085 10.3972V12.9006ZM25.0208 24.8168H6.99628V27.3202H25.0208V24.8168Z" fill="#03B473"/>
</svg>
