<svg width="86" height="23" viewBox="0 0 86 23" fill="none" xmlns="http://www.w3.org/2000/svg">
<rect x="0.342773" y="0.414062" width="85.0787" height="22.1389" rx="6.09259" fill="#EEEEEE"/>
<path d="M11.0049 7.52324H17.0975M14.0512 6.50781V7.52324M14.5833 12.3465C13.8014 11.5372 13.1756 10.5905 12.7372 9.55411M15.8282 14.1236H19.3822M15.0666 15.6467L17.6052 10.5695L20.1438 15.6467M15.9556 7.52324C15.4642 10.4528 13.579 12.9101 11.0049 14.189" stroke="#03B473" stroke-width="0.761574" stroke-linecap="round" stroke-linejoin="round"/>
<path d="M29.7972 8.06314V7.23017H35.6128V8.06314H33.1745V14.9844H32.2355V8.06314H29.7972ZM36.3369 14.9844V9.16872H37.2002V10.0471H37.2608C37.3668 9.75937 37.5586 9.52589 37.8363 9.34667C38.1139 9.16746 38.4269 9.07785 38.7753 9.07785C38.8409 9.07785 38.9229 9.07911 39.0214 9.08164C39.1198 9.08416 39.1943 9.08795 39.2448 9.093V10.0017C39.2145 9.99412 39.1451 9.98276 39.0365 9.96762C38.9305 9.94995 38.8182 9.94111 38.6995 9.94111C38.4168 9.94111 38.1644 10.0004 37.9423 10.1191C37.7227 10.2352 37.5485 10.3967 37.4198 10.6037C37.2936 10.8082 37.2305 11.0416 37.2305 11.3042V14.9844H36.3369ZM42.0153 15.1207C41.6468 15.1207 41.3124 15.0513 41.012 14.9124C40.7116 14.7711 40.4731 14.5679 40.2964 14.3029C40.1197 14.0353 40.0313 13.7122 40.0313 13.3336C40.0313 13.0004 40.097 12.7303 40.2282 12.5233C40.3595 12.3138 40.5349 12.1497 40.7545 12.0311C40.9741 11.9125 41.2164 11.8241 41.4815 11.7661C41.749 11.7055 42.0179 11.6575 42.2879 11.6222C42.6413 11.5768 42.9278 11.5427 43.1474 11.52C43.3695 11.4947 43.5311 11.4531 43.6321 11.395C43.7355 11.337 43.7873 11.236 43.7873 11.0921V11.0618C43.7873 10.6883 43.6851 10.398 43.4806 10.191C43.2787 9.98402 42.972 9.88053 42.5605 9.88053C42.134 9.88053 41.7995 9.97393 41.5572 10.1607C41.3149 10.3475 41.1445 10.5469 41.0461 10.7589L40.1979 10.456C40.3494 10.1027 40.5513 9.82752 40.8037 9.63064C41.0587 9.43123 41.3363 9.2924 41.6367 9.21415C41.9396 9.13338 42.2375 9.093 42.5303 9.093C42.717 9.093 42.9316 9.11571 43.1739 9.16115C43.4188 9.20406 43.6548 9.29367 43.8819 9.42997C44.1116 9.56627 44.3022 9.77199 44.4537 10.0471C44.6051 10.3223 44.6808 10.6908 44.6808 11.1527V14.9844H43.7873V14.1968H43.7419C43.6813 14.323 43.5803 14.4581 43.439 14.602C43.2976 14.7458 43.1096 14.8683 42.8748 14.9692C42.6401 15.0702 42.3536 15.1207 42.0153 15.1207ZM42.1516 14.318C42.505 14.318 42.8029 14.2486 43.0452 14.1098C43.29 13.9709 43.4743 13.7917 43.598 13.5721C43.7242 13.3525 43.7873 13.1215 43.7873 12.8792V12.0614C43.7494 12.1068 43.6661 12.1485 43.5374 12.1863C43.4112 12.2217 43.2648 12.2532 43.0982 12.281C42.9341 12.3062 42.7738 12.329 42.6173 12.3492C42.4634 12.3668 42.3384 12.382 42.2425 12.3946C42.0103 12.4249 41.7932 12.4741 41.5913 12.5423C41.3919 12.6079 41.2303 12.7076 41.1066 12.8414C40.9855 12.9726 40.9249 13.1518 40.9249 13.379C40.9249 13.6895 41.0397 13.9242 41.2694 14.0833C41.5017 14.2397 41.7957 14.318 42.1516 14.318ZM47.2053 11.4859V14.9844H46.3118V9.16872H47.175V10.0774H47.2507C47.387 9.78209 47.594 9.54482 47.8717 9.3656C48.1493 9.18387 48.5078 9.093 48.947 9.093C49.3407 9.093 49.6853 9.17377 49.9806 9.33531C50.2759 9.49434 50.5056 9.73666 50.6697 10.0623C50.8338 10.3854 50.9158 10.7943 50.9158 11.289V14.9844H50.0223V11.3496C50.0223 10.8927 49.9036 10.5368 49.6664 10.2819C49.4291 10.0244 49.1035 9.89568 48.6895 9.89568C48.4043 9.89568 48.1493 9.95752 47.9247 10.0812C47.7026 10.2049 47.5271 10.3854 47.3984 10.6226C47.2697 10.8599 47.2053 11.1477 47.2053 11.4859ZM56.6681 10.4712L55.8654 10.6984C55.8149 10.5646 55.7404 10.4346 55.642 10.3084C55.5461 10.1796 55.4148 10.0736 55.2482 9.99033C55.0816 9.90704 54.8683 9.86539 54.6083 9.86539C54.2524 9.86539 53.9558 9.94742 53.7186 10.1115C53.4838 10.273 53.3665 10.4788 53.3665 10.7286C53.3665 10.9508 53.4472 11.1262 53.6088 11.2549C53.7703 11.3837 54.0227 11.4909 54.366 11.5768L55.2293 11.7888C55.7493 11.915 56.1367 12.1081 56.3917 12.3681C56.6466 12.6256 56.7741 12.9575 56.7741 13.3639C56.7741 13.6971 56.6782 13.9949 56.4863 14.2574C56.297 14.5199 56.032 14.7269 55.6912 14.8784C55.3504 15.0298 54.9542 15.1055 54.5023 15.1055C53.9092 15.1055 53.4182 14.9768 53.0295 14.7193C52.6408 14.4619 52.3947 14.0858 52.2912 13.591L53.1393 13.379C53.2201 13.692 53.3728 13.9268 53.5974 14.0833C53.8246 14.2397 54.1212 14.318 54.4872 14.318C54.9037 14.318 55.2343 14.2297 55.4792 14.053C55.7265 13.8737 55.8502 13.6592 55.8502 13.4093C55.8502 13.2074 55.7796 13.0383 55.6382 12.9019C55.4968 12.7631 55.2798 12.6596 54.987 12.5915L54.0177 12.3643C53.4851 12.2381 53.0939 12.0425 52.844 11.7774C52.5966 11.5099 52.4729 11.1754 52.4729 10.7741C52.4729 10.4459 52.565 10.1557 52.7493 9.90325C52.9361 9.65083 53.1898 9.45269 53.5103 9.30881C53.8334 9.16493 54.1994 9.093 54.6083 9.093C55.1839 9.093 55.6357 9.2192 55.9638 9.47162C56.2945 9.72403 56.5292 10.0572 56.6681 10.4712ZM59.0127 7.23017V14.9844H58.1191V7.23017H59.0127ZM62.3607 15.1207C61.9921 15.1207 61.6577 15.0513 61.3573 14.9124C61.0569 14.7711 60.8184 14.5679 60.6417 14.3029C60.465 14.0353 60.3767 13.7122 60.3767 13.3336C60.3767 13.0004 60.4423 12.7303 60.5736 12.5233C60.7048 12.3138 60.8802 12.1497 61.0998 12.0311C61.3194 11.9125 61.5618 11.8241 61.8268 11.7661C62.0944 11.7055 62.3632 11.6575 62.6333 11.6222C62.9866 11.5768 63.2731 11.5427 63.4927 11.52C63.7149 11.4947 63.8764 11.4531 63.9774 11.395C64.0809 11.337 64.1326 11.236 64.1326 11.0921V11.0618C64.1326 10.6883 64.0304 10.398 63.8259 10.191C63.624 9.98402 63.3173 9.88053 62.9059 9.88053C62.4793 9.88053 62.1448 9.97393 61.9025 10.1607C61.6602 10.3475 61.4898 10.5469 61.3914 10.7589L60.5433 10.456C60.6947 10.1027 60.8966 9.82752 61.1491 9.63064C61.404 9.43123 61.6817 9.2924 61.982 9.21415C62.2849 9.13338 62.5828 9.093 62.8756 9.093C63.0624 9.093 63.2769 9.11571 63.5192 9.16115C63.7641 9.20406 64.0001 9.29367 64.2273 9.42997C64.457 9.56627 64.6475 9.77199 64.799 10.0471C64.9504 10.3223 65.0262 10.6908 65.0262 11.1527V14.9844H64.1326V14.1968H64.0872C64.0266 14.323 63.9256 14.4581 63.7843 14.602C63.6429 14.7458 63.4549 14.8683 63.2201 14.9692C62.9854 15.0702 62.6989 15.1207 62.3607 15.1207ZM62.497 14.318C62.8503 14.318 63.1482 14.2486 63.3905 14.1098C63.6354 13.9709 63.8196 13.7917 63.9433 13.5721C64.0695 13.3525 64.1326 13.1215 64.1326 12.8792V12.0614C64.0948 12.1068 64.0115 12.1485 63.8827 12.1863C63.7565 12.2217 63.6101 12.2532 63.4435 12.281C63.2795 12.3062 63.1192 12.329 62.9627 12.3492C62.8087 12.3668 62.6837 12.382 62.5878 12.3946C62.3556 12.4249 62.1385 12.4741 61.9366 12.5423C61.7372 12.6079 61.5756 12.7076 61.452 12.8414C61.3308 12.9726 61.2702 13.1518 61.2702 13.379C61.2702 13.6895 61.3851 13.9242 61.6148 14.0833C61.847 14.2397 62.1411 14.318 62.497 14.318ZM69.1863 9.16872V9.92597H66.1724V9.16872H69.1863ZM67.0509 7.77539H67.9444V13.3184C67.9444 13.5708 67.981 13.7602 68.0542 13.8864C68.1299 14.0101 68.2258 14.0933 68.342 14.1363C68.4606 14.1766 68.5855 14.1968 68.7168 14.1968C68.8152 14.1968 68.896 14.1918 68.9591 14.1817C69.0222 14.1691 69.0727 14.159 69.1106 14.1514L69.2923 14.9541C69.2317 14.9768 69.1472 14.9995 69.0386 15.0222C68.9301 15.0475 68.7925 15.0601 68.6259 15.0601C68.3735 15.0601 68.1261 15.0058 67.8838 14.8973C67.644 14.7888 67.4446 14.6234 67.2856 14.4013C67.1291 14.1792 67.0509 13.899 67.0509 13.5608V7.77539ZM72.9063 15.1055C72.3459 15.1055 71.8625 14.9819 71.4561 14.7345C71.0523 14.4846 70.7405 14.1363 70.5209 13.6895C70.3039 13.2402 70.1953 12.7177 70.1953 12.122C70.1953 11.5263 70.3039 11.0013 70.5209 10.5469C70.7405 10.09 71.046 9.73413 71.4372 9.47919C71.831 9.22173 72.2904 9.093 72.8154 9.093C73.1183 9.093 73.4174 9.14348 73.7127 9.24444C74.0081 9.34541 74.2769 9.50948 74.5192 9.73666C74.7615 9.9613 74.9546 10.2592 75.0985 10.6302C75.2424 11.0013 75.3143 11.4581 75.3143 12.0008V12.3794H70.8314V11.6071H74.4056C74.4056 11.2789 74.34 10.9861 74.2087 10.7286C74.08 10.4712 73.8957 10.268 73.6559 10.1191C73.4187 9.97014 73.1385 9.89568 72.8154 9.89568C72.4595 9.89568 72.1515 9.98402 71.8916 10.1607C71.6341 10.3349 71.4359 10.5621 71.2971 10.8422C71.1583 11.1224 71.0889 11.4228 71.0889 11.7434V12.2583C71.0889 12.6975 71.1646 13.0698 71.316 13.3752C71.47 13.6781 71.6833 13.9091 71.9559 14.0681C72.2285 14.2246 72.5453 14.3029 72.9063 14.3029C73.141 14.3029 73.353 14.27 73.5424 14.2044C73.7342 14.1363 73.8995 14.0353 74.0383 13.9015C74.1772 13.7652 74.2845 13.5961 74.3602 13.3942L75.2234 13.6365C75.1326 13.9293 74.9799 14.1867 74.7653 14.4089C74.5508 14.6285 74.2857 14.8001 73.9702 14.9238C73.6547 15.045 73.3 15.1055 72.9063 15.1055Z" fill="#03B473"/>
</svg>
