<svg width="21" height="21" viewBox="0 0 21 21" fill="none" xmlns="http://www.w3.org/2000/svg">
<path d="M4.4082 9.34964C4.63003 10.8738 5.3932 12.2671 6.55808 13.2748C7.72297 14.2824 9.2117 14.8369 10.7519 14.8369M10.7519 14.8369C12.2921 14.8369 13.7809 14.2824 14.9458 13.2748C16.1106 12.2671 16.8738 10.8738 17.0956 9.34964M10.7519 14.8369V18.0472M10.7528 2.02539C10.0244 2.02539 9.32579 2.31476 8.8107 2.82985C8.29561 3.34494 8.00624 4.04354 8.00624 4.77199V8.43411C8.00624 9.16255 8.29561 9.86116 8.8107 10.3762C9.32579 10.8913 10.0244 11.1807 10.7528 11.1807C11.4813 11.1807 12.1799 10.8913 12.695 10.3762C13.2101 9.86116 13.4994 9.16255 13.4994 8.43411V4.77199C13.4994 4.04354 13.2101 3.34494 12.695 2.82985C12.1799 2.31476 11.4813 2.02539 10.7528 2.02539Z" stroke="#03B473" stroke-width="1.50204" stroke-linecap="round" stroke-linejoin="round"/>
</svg>
