<svg width="145" height="33" viewBox="0 0 145 33" fill="none" xmlns="http://www.w3.org/2000/svg">
<rect width="144.65" height="32.8942" rx="8.16286" fill="#EEEEEE"/>
<path d="M23.9348 13.0743C25.2975 15.2378 25.4899 18.1172 24.1937 20.6652M21.0641 14.4894C22.2143 15.8338 22.3767 17.6231 21.2826 19.2065M17.3248 11.2852L13.5284 14.2866H9.58105V18.6082L13.5284 18.6071L17.3248 21.6101V11.2852Z" stroke="#03B473" stroke-width="1.3" stroke-linecap="round" stroke-linejoin="round"/>
<path d="M39.4576 14.2873C39.4035 13.8071 39.1803 13.4351 38.788 13.1713C38.3957 12.9041 37.9019 12.7706 37.3067 12.7706C36.8806 12.7706 36.512 12.8382 36.2009 12.9735C35.8897 13.1054 35.6479 13.288 35.4755 13.5213C35.3064 13.7513 35.2218 14.0134 35.2218 14.3076C35.2218 14.5545 35.2793 14.7676 35.3943 14.9468C35.5127 15.126 35.6665 15.2765 35.8559 15.3983C36.0487 15.5166 36.255 15.6164 36.4748 15.6976C36.6946 15.7754 36.906 15.8396 37.1089 15.8903L38.1235 16.1541C38.4549 16.2353 38.7948 16.3452 39.1431 16.4839C39.4914 16.6225 39.8144 16.8051 40.112 17.0317C40.4096 17.2583 40.6497 17.539 40.8323 17.8738C41.0183 18.2086 41.1113 18.6094 41.1113 19.0761C41.1113 19.6645 40.9592 20.187 40.6548 20.6436C40.3538 21.1001 39.9158 21.4603 39.3409 21.7241C38.7694 21.9878 38.0778 22.1197 37.2662 22.1197C36.4883 22.1197 35.8153 21.9963 35.2472 21.7494C34.679 21.5025 34.2343 21.1525 33.913 20.6994C33.5918 20.2428 33.4142 19.7017 33.3804 19.0761H34.953C34.9834 19.4514 35.1051 19.7643 35.3182 20.0145C35.5346 20.2614 35.8103 20.4457 36.1451 20.5675C36.4833 20.6858 36.8536 20.745 37.256 20.745C37.699 20.745 38.093 20.6757 38.438 20.537C38.7863 20.395 39.0602 20.1988 39.2598 19.9486C39.4593 19.6949 39.5591 19.399 39.5591 19.0608C39.5591 18.7531 39.4711 18.5011 39.2953 18.305C39.1228 18.1088 38.8878 17.9465 38.5902 17.818C38.2959 17.6895 37.9628 17.5762 37.5908 17.4781L36.3632 17.1433C35.5313 16.9167 34.8718 16.5836 34.3848 16.144C33.9012 15.7043 33.6594 15.1227 33.6594 14.3989C33.6594 13.8003 33.8217 13.2778 34.1464 12.8314C34.471 12.385 34.9107 12.0384 35.4653 11.7915C36.0199 11.5413 36.6456 11.4161 37.3422 11.4161C38.0457 11.4161 38.6662 11.5396 39.204 11.7864C39.7451 12.0333 40.1712 12.3732 40.4823 12.8061C40.7934 13.2356 40.9558 13.7293 40.9693 14.2873H39.4576ZM42.8627 24.8692V14.1554H44.344V15.4186H44.4708C44.5587 15.2562 44.6855 15.0685 44.8513 14.8555C45.017 14.6424 45.2469 14.4564 45.5412 14.2975C45.8354 14.1351 46.2243 14.054 46.7079 14.054C47.3369 14.054 47.8983 14.2129 48.3921 14.5308C48.8858 14.8487 49.2731 15.307 49.5537 15.9056C49.8378 16.5041 49.9799 17.2245 49.9799 18.0666C49.9799 18.9087 49.8395 19.6307 49.5588 20.2327C49.2781 20.8312 48.8926 21.2929 48.4022 21.6175C47.9119 21.9388 47.3522 22.0994 46.7231 22.0994C46.2497 22.0994 45.8624 22.02 45.5615 21.861C45.2638 21.7021 45.0305 21.5161 44.8614 21.303C44.6923 21.09 44.5621 20.9006 44.4708 20.7349H44.3795V24.8692H42.8627ZM44.3491 18.0514C44.3491 18.5992 44.4285 19.0794 44.5875 19.492C44.7464 19.9046 44.9764 20.2276 45.2774 20.4609C45.5784 20.6909 45.947 20.8059 46.3832 20.8059C46.8364 20.8059 47.2152 20.6858 47.5196 20.4457C47.8239 20.2022 48.0539 19.8725 48.2095 19.4565C48.3684 19.0405 48.4479 18.5722 48.4479 18.0514C48.4479 17.5373 48.3701 17.0757 48.2145 16.6665C48.0623 16.2573 47.8324 15.9343 47.5246 15.6976C47.2203 15.4608 46.8398 15.3425 46.3832 15.3425C45.9436 15.3425 45.5716 15.4558 45.2672 15.6824C44.9662 15.9089 44.738 16.2251 44.5824 16.631C44.4268 17.0368 44.3491 17.5103 44.3491 18.0514ZM55.0374 22.1045C54.2698 22.1045 53.6086 21.9405 53.054 21.6125C52.5027 21.281 52.0766 20.816 51.7756 20.2174C51.478 19.6155 51.3292 18.9103 51.3292 18.1021C51.3292 17.304 51.478 16.6005 51.7756 15.9918C52.0766 15.3831 52.496 14.9079 53.0337 14.5663C53.5748 14.2248 54.2072 14.054 54.9309 14.054C55.3706 14.054 55.7967 14.1267 56.2093 14.2721C56.6219 14.4175 56.9922 14.6458 57.3202 14.9569C57.6483 15.2681 57.907 15.6722 58.0963 16.1693C58.2857 16.6631 58.3804 17.2634 58.3804 17.9702V18.5079H52.1865V17.3716H56.8941C56.8941 16.9725 56.8129 16.6191 56.6506 16.3114C56.4883 16.0002 56.26 15.7551 55.9658 15.5758C55.6749 15.3966 55.3334 15.307 54.9411 15.307C54.515 15.307 54.1429 15.4118 53.825 15.6215C53.5105 15.8278 53.267 16.0983 53.0946 16.4331C52.9255 16.7646 52.8409 17.1247 52.8409 17.5136V18.4014C52.8409 18.9222 52.9322 19.3652 53.1149 19.7305C53.3009 20.0957 53.5596 20.3747 53.891 20.5675C54.2224 20.7568 54.6096 20.8515 55.0527 20.8515C55.3401 20.8515 55.6022 20.811 55.839 20.7298C56.0757 20.6452 56.2803 20.5201 56.4528 20.3544C56.6252 20.1887 56.7571 19.9841 56.8484 19.7406L58.284 19.9993C58.1691 20.422 57.9628 20.7924 57.6652 21.1103C57.3709 21.4248 57.0006 21.67 56.5542 21.8458C56.1112 22.0183 55.6056 22.1045 55.0374 22.1045ZM63.4215 22.1045C62.6538 22.1045 61.9927 21.9405 61.4381 21.6125C60.8868 21.281 60.4607 20.816 60.1597 20.2174C59.8621 19.6155 59.7133 18.9103 59.7133 18.1021C59.7133 17.304 59.8621 16.6005 60.1597 15.9918C60.4607 15.3831 60.8801 14.9079 61.4178 14.5663C61.9589 14.2248 62.5913 14.054 63.315 14.054C63.7546 14.054 64.1808 14.1267 64.5933 14.2721C65.0059 14.4175 65.3762 14.6458 65.7043 14.9569C66.0323 15.2681 66.291 15.6722 66.4804 16.1693C66.6698 16.6631 66.7645 17.2634 66.7645 17.9702V18.5079H60.5706V17.3716H65.2782C65.2782 16.9725 65.197 16.6191 65.0347 16.3114C64.8723 16.0002 64.6441 15.7551 64.3498 15.5758C64.059 15.3966 63.7174 15.307 63.3251 15.307C62.899 15.307 62.527 15.4118 62.2091 15.6215C61.8946 15.8278 61.6511 16.0983 61.4786 16.4331C61.3095 16.7646 61.225 17.1247 61.225 17.5136V18.4014C61.225 18.9222 61.3163 19.3652 61.4989 19.7305C61.6849 20.0957 61.9436 20.3747 62.2751 20.5675C62.6065 20.7568 62.9937 20.8515 63.4367 20.8515C63.7242 20.8515 63.9863 20.811 64.223 20.7298C64.4598 20.6452 64.6644 20.5201 64.8368 20.3544C65.0093 20.1887 65.1412 19.9841 65.2325 19.7406L66.6681 19.9993C66.5531 20.422 66.3468 20.7924 66.0492 21.1103C65.755 21.4248 65.3847 21.67 64.9383 21.8458C64.4953 22.0183 63.9897 22.1045 63.4215 22.1045ZM71.7295 22.1045C70.9754 22.1045 70.326 21.9337 69.7816 21.5922C69.2405 21.2472 68.8245 20.7721 68.5336 20.1667C68.2428 19.5614 68.0974 18.8681 68.0974 18.0869C68.0974 17.2955 68.2462 16.5971 68.5438 15.9918C68.8414 15.3831 69.2607 14.9079 69.8018 14.5663C70.3429 14.2248 70.9804 14.054 71.7143 14.054C72.3061 14.054 72.8337 14.1639 73.297 14.3837C73.7603 14.6002 74.134 14.9045 74.4181 15.2968C74.7056 15.6891 74.8763 16.1474 74.9304 16.6716H73.4543C73.3731 16.3063 73.1871 15.9918 72.8963 15.728C72.6088 15.4642 72.2233 15.3323 71.7397 15.3323C71.3169 15.3323 70.9466 15.4439 70.6287 15.6671C70.3142 15.887 70.069 16.2015 69.8932 16.6107C69.7173 17.0165 69.6294 17.4967 69.6294 18.0514C69.6294 18.6195 69.7156 19.1099 69.8881 19.5225C70.0606 19.9351 70.3041 20.2546 70.6186 20.4812C70.9365 20.7078 71.3102 20.8211 71.7397 20.8211C72.0271 20.8211 72.2875 20.7687 72.5209 20.6638C72.7576 20.5556 72.9554 20.4018 73.1144 20.2022C73.2767 20.0027 73.39 19.7626 73.4543 19.4819H74.9304C74.8763 19.9858 74.7123 20.4356 74.4384 20.8312C74.1645 21.2269 73.7975 21.5381 73.3376 21.7646C72.881 21.9912 72.345 22.1045 71.7295 22.1045ZM78.0692 17.3209V21.9473H76.5525V11.5582H78.049V15.4236H78.1453C78.328 15.0043 78.607 14.6712 78.9823 14.4243C79.3577 14.1774 79.8481 14.054 80.4535 14.054C80.9878 14.054 81.4545 14.1639 81.8536 14.3837C82.256 14.6035 82.5671 14.9316 82.7869 15.3678C83.0102 15.8007 83.1218 16.3418 83.1218 16.9911V21.9473H81.605V17.1738C81.605 16.6022 81.4579 16.1592 81.1637 15.8447C80.8694 15.5268 80.4602 15.3678 79.936 15.3678C79.5776 15.3678 79.2563 15.4439 78.9722 15.5961C78.6915 15.7483 78.47 15.9715 78.3077 16.2657C78.1487 16.5566 78.0692 16.9083 78.0692 17.3209ZM92.5635 14.1554V15.3729H88.3074V14.1554H92.5635ZM89.4488 12.2886H90.9656V19.6594C90.9656 19.9537 91.0095 20.1752 91.0975 20.324C91.1854 20.4694 91.2987 20.5692 91.4373 20.6233C91.5794 20.674 91.7333 20.6994 91.899 20.6994C92.0207 20.6994 92.1272 20.6909 92.2186 20.674C92.3099 20.6571 92.3809 20.6436 92.4316 20.6334L92.7055 21.8864C92.6176 21.9202 92.4925 21.954 92.3302 21.9878C92.1678 22.025 91.9649 22.0453 91.7214 22.0487C91.3224 22.0555 90.9504 21.9845 90.6054 21.8357C90.2605 21.6869 89.9815 21.4569 89.7684 21.1458C89.5553 20.8346 89.4488 20.444 89.4488 19.9739V12.2886ZM97.4397 22.1045C96.7093 22.1045 96.0718 21.9371 95.5273 21.6023C94.9828 21.2675 94.5601 20.7991 94.2591 20.1971C93.9581 19.5952 93.8076 18.8917 93.8076 18.0869C93.8076 17.2786 93.9581 16.5718 94.2591 15.9664C94.5601 15.3611 94.9828 14.891 95.5273 14.5562C96.0718 14.2214 96.7093 14.054 97.4397 14.054C98.1702 14.054 98.8077 14.2214 99.3522 14.5562C99.8967 14.891 100.319 15.3611 100.62 15.9664C100.921 16.5718 101.072 17.2786 101.072 18.0869C101.072 18.8917 100.921 19.5952 100.62 20.1971C100.319 20.7991 99.8967 21.2675 99.3522 21.6023C98.8077 21.9371 98.1702 22.1045 97.4397 22.1045ZM97.4448 20.8312C97.9183 20.8312 98.3106 20.7061 98.6217 20.4559C98.9328 20.2056 99.1628 19.8725 99.3116 19.4565C99.4638 19.0405 99.5399 18.5823 99.5399 18.0818C99.5399 17.5847 99.4638 17.1281 99.3116 16.7121C99.1628 16.2928 98.9328 15.9563 98.6217 15.7026C98.3106 15.449 97.9183 15.3222 97.4448 15.3222C96.968 15.3222 96.5723 15.449 96.2578 15.7026C95.9466 15.9563 95.715 16.2928 95.5628 16.7121C95.414 17.1281 95.3396 17.5847 95.3396 18.0818C95.3396 18.5823 95.414 19.0405 95.5628 19.4565C95.715 19.8725 95.9466 20.2056 96.2578 20.4559C96.5723 20.7061 96.968 20.8312 97.4448 20.8312ZM106.155 12.9075V11.5582H114.195V12.9075H110.954V21.9473H109.391V12.9075H106.155ZM118.078 22.1045C117.311 22.1045 116.65 21.9405 116.095 21.6125C115.544 21.281 115.118 20.816 114.817 20.2174C114.519 19.6155 114.37 18.9103 114.37 18.1021C114.37 17.304 114.519 16.6005 114.817 15.9918C115.118 15.3831 115.537 14.9079 116.075 14.5663C116.616 14.2248 117.248 14.054 117.972 14.054C118.412 14.054 118.838 14.1267 119.25 14.2721C119.663 14.4175 120.033 14.6458 120.361 14.9569C120.689 15.2681 120.948 15.6722 121.137 16.1693C121.327 16.6631 121.421 17.2634 121.421 17.9702V18.5079H115.228V17.3716H119.935C119.935 16.9725 119.854 16.6191 119.692 16.3114C119.529 16.0002 119.301 15.7551 119.007 15.5758C118.716 15.3966 118.374 15.307 117.982 15.307C117.556 15.307 117.184 15.4118 116.866 15.6215C116.552 15.8278 116.308 16.0983 116.136 16.4331C115.966 16.7646 115.882 17.1247 115.882 17.5136V18.4014C115.882 18.9222 115.973 19.3652 116.156 19.7305C116.342 20.0957 116.601 20.3747 116.932 20.5675C117.263 20.7568 117.651 20.8515 118.094 20.8515C118.381 20.8515 118.643 20.811 118.88 20.7298C119.117 20.6452 119.321 20.5201 119.494 20.3544C119.666 20.1887 119.798 19.9841 119.889 19.7406L121.325 19.9993C121.21 20.422 121.004 20.7924 120.706 21.1103C120.412 21.4248 120.042 21.67 119.595 21.8458C119.152 22.0183 118.647 22.1045 118.078 22.1045ZM124.12 14.1554L125.84 17.189L127.575 14.1554H129.234L126.804 18.0514L129.254 21.9473H127.595L125.84 19.0355L124.09 21.9473H122.426L124.851 18.0514L122.456 14.1554H124.12ZM134.428 14.1554V15.3729H130.172V14.1554H134.428ZM131.313 12.2886H132.83V19.6594C132.83 19.9537 132.874 20.1752 132.962 20.324C133.05 20.4694 133.163 20.5692 133.302 20.6233C133.444 20.674 133.598 20.6994 133.764 20.6994C133.885 20.6994 133.992 20.6909 134.083 20.674C134.174 20.6571 134.245 20.6436 134.296 20.6334L134.57 21.8864C134.482 21.9202 134.357 21.954 134.195 21.9878C134.032 22.025 133.829 22.0453 133.586 22.0487C133.187 22.0555 132.815 21.9845 132.47 21.8357C132.125 21.6869 131.846 21.4569 131.633 21.1458C131.42 20.8346 131.313 20.444 131.313 19.9739V12.2886Z" fill="#03B473"/>
</svg>
