<svg width="21" height="21" viewBox="0 0 21 21" fill="none" xmlns="http://www.w3.org/2000/svg">
<path d="M3.34372 7.91954C2.80098 8.14735 2.46411 8.5529 2.45902 9.12701C2.45551 9.52839 2.72638 10.0675 3.26912 10.2878C3.49267 10.3787 6.63153 10.801 6.63153 10.801C6.63153 10.801 7.46233 13.427 7.76173 14.35C7.84843 14.617 7.89784 14.748 8.0881 14.9224C8.41087 15.2178 8.95653 15.1252 9.19251 14.8882C9.81686 14.2624 10.8037 13.2969 10.8037 13.2969L11.219 13.6348C11.219 13.6348 13.0633 15.106 14.0714 15.7986C14.665 16.2067 15.0769 16.6322 15.745 16.6347C16.0853 16.6364 16.6311 16.467 16.992 16.0539C17.2304 15.7811 17.3833 15.3446 17.4425 14.9533C17.577 14.0646 19.1551 4.45483 19.1484 4.11854C19.1377 3.58198 18.6863 3.27989 18.3112 3.28323C18.0755 3.28573 17.8813 3.35417 17.4493 3.48602C14.1069 4.50657 3.56511 7.82692 3.34372 7.91954ZM15.8105 5.78664C15.8105 5.78664 11.4062 9.6202 9.64622 11.3843C9.08237 11.9492 9.04256 12.9189 9.04256 12.9189L8.13282 10.0082L15.8105 5.78664Z" fill="#262CD9"/>
</svg>
